<?xml version="1.0" encoding="UTF-8"?>
<svg id="Ebene_1" data-name="Ebene 1" xmlns="http://www.w3.org/2000/svg" viewBox="0 0 646.13 138.61">
  <defs>
    <style>
      .cls-1 {
        fill: #29235c;
      }

      .cls-2 {
        fill: #1d1d1b;
      }

      .cls-3 {
        fill: #fff;
      }

      .cls-4 {
        fill: #e71d73;
      }
    </style>
  </defs>
  <g>
    <circle class="cls-3" cx="69.41" cy="69.3" r="65.2"/>
    <g>
      <g>
        <path class="cls-1" d="M68.73,39.18h0s0,.01,0,.01c0,0,0,0,0-.01Z"/>
        <path class="cls-1" d="M93.62,57c-.2.38-.42.75-.67,1.1-.18.25-.37.5-.57.74-1.94,2.29-4.88,3.75-8.18,3.75-3.75,0-7.05-1.89-8.92-4.74-1.03-1.57-1.63-3.43-1.63-5.41s.6-3.85,1.63-5.42c-.98-3.24-2.8-6.13-5.23-8.43,0,0,0,0,0,0-3.65-3.46-8.65-5.59-14.16-5.59-11.14,0-20.2,8.72-20.2,19.44,0,1.6.2,3.16.59,4.65h10.24c-.75-1.4-1.17-2.98-1.17-4.65,0-5.6,4.73-10.15,10.55-10.15,3.75,0,7.05,1.89,8.92,4.74-.52,1.72-.8,3.54-.8,5.42s.28,3.7.8,5.42c.98,3.24,2.81,6.13,5.24,8.43,3.58,3.39,8.46,5.51,13.85,5.59l-14.91,22.91-13.61-22.92-4.38-7.38h-11.12l28.72,48.38,31.69-48.71c1.65-2.1,2.87-4.52,3.53-7.16h-10.22ZM68.72,39.18h0s0,0,0,0c0,0,0,0,0,0Z"/>
        <path class="cls-1" d="M47.49,58.57c-.09-.11-.17-.21-.25-.32l.04-.02.21.35Z"/>
        <path class="cls-1" d="M92.96,58.1c-.18.25-.37.5-.57.74l.51-.78.06.04Z"/>
      </g>
      <path class="cls-1" d="M68.73,39.18h0s0,.01,0,.01c0,0,0,0,0-.01ZM82.88,33.59c-3.18,0-6.19.71-8.87,1.98,0,0,2.81,3.06,4.86,8.07,1.24-.49,2.59-.76,4-.76,3.53,0,6.67,1.68,8.58,4.26h10.67c-2.6-7.85-10.25-13.55-19.25-13.55Z"/>
    </g>
    <path class="cls-4" d="M69.41,138.61c-9.37,0-18.46-1.83-27.02-5.45-8.27-3.49-15.69-8.49-22.06-14.85s-11.38-13.77-14.87-22.03c-3.62-8.55-5.46-17.62-5.46-26.98s1.84-18.43,5.46-26.98c3.5-8.25,8.5-15.66,14.87-22.03s13.8-11.36,22.06-14.85C50.95,1.83,60.04,0,69.41,0s18.46,1.83,27.02,5.45c8.27,3.49,15.69,8.49,22.06,14.85s11.38,13.77,14.87,22.03c3.62,8.55,5.46,17.62,5.46,26.98s-1.84,18.43-5.46,26.98c-3.5,8.25-8.5,15.66-14.87,22.03s-13.8,11.36-22.06,14.85c-8.56,3.62-17.65,5.45-27.02,5.45ZM69.41,10.28c-32.6,0-59.12,26.48-59.12,59.03s26.52,59.03,59.12,59.03,59.12-26.48,59.12-59.03S102.01,10.28,69.41,10.28Z"/>
  </g>
  <g>
    <g>
      <path class="cls-1" d="M244.53,94.3l-29.73-84.73h19.19l13.67,41.06c1.59,5.16,3.26,10.78,4.98,16.86,1.73,6.08,3.58,12.73,5.55,19.93h-4.44c1.9-7.24,3.68-13.89,5.35-19.96,1.67-6.07,3.28-11.68,4.84-16.83l13.21-41.06h19.02l-29.16,84.73h-22.5Z"/>
      <path class="cls-1" d="M304.62,94.3V9.57h17.43v34.12h36.45V9.57h17.49v84.73h-17.49v-35.88h-36.45v35.88h-17.43Z"/>
      <path class="cls-1" d="M417.51,95.61c-6.26,0-11.7-1.34-16.29-4.01-4.59-2.67-8.14-6.41-10.65-11.2-2.51-4.8-3.76-10.38-3.76-16.75s1.26-11.85,3.79-16.66c2.52-4.81,6.04-8.59,10.54-11.32,4.5-2.73,9.73-4.09,15.69-4.09,4.29,0,8.25.71,11.87,2.13s6.77,3.5,9.43,6.23c2.66,2.73,4.73,6.05,6.21,9.95s2.22,8.34,2.22,13.31v4.61h-53.31v-10.69h45.11l-7.75,2.67c0-3.15-.53-5.88-1.59-8.19-1.06-2.31-2.6-4.09-4.61-5.35-2.01-1.25-4.46-1.88-7.35-1.88s-5.29.64-7.32,1.91c-2.03,1.27-3.6,3.03-4.7,5.29-1.1,2.26-1.65,4.88-1.65,7.88v7.45c0,3.34.59,6.21,1.77,8.62,1.18,2.41,2.86,4.25,5.04,5.52,2.18,1.27,4.76,1.91,7.72,1.91,2.13,0,4.02-.3,5.7-.91,1.67-.61,3.08-1.48,4.24-2.62,1.16-1.14,2-2.48,2.53-4.04l15.38,1.25c-.87,3.75-2.61,7.06-5.21,9.92-2.6,2.86-5.87,5.09-9.8,6.68-3.93,1.59-8.34,2.39-13.24,2.39Z"/>
      <path class="cls-1" d="M475.83,95.38c-4.02,0-7.61-.68-10.76-2.05-3.15-1.36-5.63-3.41-7.43-6.14-1.8-2.73-2.71-6.12-2.71-10.18,0-3.49.64-6.39,1.91-8.7,1.27-2.31,3.02-4.17,5.24-5.57,2.22-1.4,4.76-2.47,7.6-3.21,2.85-.74,5.83-1.26,8.94-1.56,3.68-.34,6.63-.68,8.83-1.02,2.2-.34,3.81-.84,4.81-1.51,1.01-.66,1.51-1.66,1.51-2.99v-.34c0-1.63-.39-3.03-1.17-4.21s-1.91-2.09-3.39-2.76c-1.48-.66-3.27-1-5.35-1s-3.99.33-5.58,1c-1.59.66-2.88,1.56-3.84,2.7s-1.6,2.45-1.91,3.92l-15.72-1.14c.61-3.94,2.09-7.34,4.44-10.18,2.35-2.84,5.47-5.02,9.34-6.54,3.87-1.52,8.39-2.27,13.56-2.27,3.8,0,7.31.44,10.54,1.31,3.23.87,6.03,2.19,8.4,3.95,2.37,1.76,4.21,3.95,5.52,6.57,1.31,2.62,1.97,5.69,1.97,9.21v41.63h-16.35v-8.64h-.34c-1.06,1.97-2.41,3.69-4.04,5.15-1.63,1.46-3.6,2.59-5.9,3.38-2.3.8-5,1.19-8.12,1.19ZM480.56,83.61c2.7,0,5.04-.51,7.03-1.54,1.99-1.02,3.54-2.41,4.64-4.15,1.1-1.74,1.65-3.72,1.65-5.91v-6.43c-.49.3-1.2.59-2.11.85-.91.27-1.94.52-3.08.77s-2.33.46-3.56.65c-1.23.19-2.44.38-3.62.57-1.98.27-3.75.72-5.33,1.37-1.58.64-2.82,1.52-3.73,2.62-.91,1.1-1.37,2.47-1.37,4.09,0,1.52.4,2.81,1.2,3.87.8,1.06,1.91,1.87,3.33,2.42,1.42.55,3.07.82,4.93.82Z"/>
      <path class="cls-1" d="M523.62,94.3v-61.64h16.35v10.63h.4c1.1-3.75,2.92-6.56,5.47-8.42,2.54-1.86,5.7-2.79,9.45-2.79.95,0,1.88.03,2.79.09.91.06,1.73.14,2.45.26v14.67c-.68-.15-1.73-.28-3.13-.4-1.41-.11-2.79-.17-4.16-.17-2.43,0-4.61.54-6.55,1.62-1.94,1.08-3.45,2.64-4.53,4.66-1.08,2.03-1.62,4.46-1.62,7.31v34.18h-16.92Z"/>
      <path class="cls-1" d="M604.44,32.66v13.14h-38.73v-13.14h38.73ZM575.39,16.85h16.86v58.86c0,2.05.44,3.5,1.31,4.35s2.39,1.28,4.56,1.28c.83,0,1.87-.04,3.1-.11s2.19-.13,2.88-.17l1.08,12.97c-1.41.27-3.03.44-4.87.54-1.84.09-3.65.14-5.44.14-6.53,0-11.41-1.4-14.64-4.21-3.23-2.8-4.84-7.01-4.84-12.62V16.85Z"/>
    </g>
    <g>
      <path class="cls-2" d="M212.59,125.45c-1.13,0-2.1-.18-2.91-.53-.81-.35-1.44-.87-1.88-1.54s-.66-1.5-.68-2.47h2.7c.02.48.14.88.38,1.21.23.33.55.58.96.75.41.17.88.26,1.43.26.51,0,.95-.07,1.33-.21.38-.14.67-.34.88-.6s.32-.56.32-.91c0-.3-.09-.56-.26-.77-.18-.21-.44-.4-.79-.55-.35-.16-.8-.3-1.34-.42l-1.45-.34c-1.25-.28-2.21-.73-2.86-1.34s-.98-1.4-.98-2.38c0-.82.22-1.54.65-2.15s1.03-1.09,1.8-1.43,1.66-.51,2.66-.51,1.91.17,2.66.52,1.34.83,1.75,1.46c.42.63.64,1.38.66,2.24h-2.65c-.05-.6-.29-1.07-.72-1.41-.43-.34-1-.51-1.72-.51-.46,0-.86.07-1.21.21s-.61.33-.8.58-.28.53-.28.85c0,.3.09.56.26.77.18.21.43.38.77.53s.75.27,1.23.38l1.26.29c.65.15,1.24.33,1.74.55.51.22.94.49,1.29.8.35.31.62.68.8,1.1.18.42.28.9.28,1.43,0,.85-.21,1.58-.64,2.2-.42.62-1.03,1.1-1.83,1.43s-1.74.5-2.84.5Z"/>
      <path class="cls-2" d="M224.94,115.41v2.1h-6.18v-2.1h6.18ZM220.31,112.89h2.69v9.39c0,.33.07.56.21.69.14.14.38.2.73.2.13,0,.3,0,.5-.02.2-.01.35-.02.46-.03l.17,2.07c-.22.04-.48.07-.78.09-.29.02-.58.02-.87.02-1.04,0-1.82-.22-2.34-.67s-.77-1.12-.77-2.01v-9.73Z"/>
      <path class="cls-2" d="M226.48,125.25v-9.83h2.61v1.7h.06c.18-.6.47-1.05.87-1.34s.91-.44,1.51-.44c.15,0,.3,0,.45.01.15,0,.28.02.39.04v2.34c-.11-.02-.28-.05-.5-.06-.22-.02-.45-.03-.66-.03-.39,0-.74.09-1.04.26s-.55.42-.72.74-.26.71-.26,1.17v5.45h-2.7Z"/>
      <path class="cls-2" d="M237.92,125.45c-1,0-1.87-.21-2.6-.64-.73-.43-1.3-1.02-1.7-1.79-.4-.76-.6-1.66-.6-2.67s.2-1.89.6-2.66c.4-.77.96-1.37,1.68-1.81s1.55-.65,2.5-.65c.68,0,1.32.11,1.89.34.58.23,1.08.56,1.5.99s.75.96.99,1.59c.24.62.35,1.33.35,2.12v.73h-8.5v-1.71h7.2l-1.24.43c0-.5-.08-.94-.25-1.31-.17-.37-.42-.65-.74-.85s-.71-.3-1.17-.3-.84.1-1.17.3c-.32.2-.57.48-.75.84-.18.36-.26.78-.26,1.26v1.19c0,.53.09.99.28,1.37s.46.68.8.88c.35.2.76.3,1.23.3.34,0,.64-.05.91-.15s.49-.24.68-.42c.18-.18.32-.4.4-.64l2.45.2c-.14.6-.42,1.13-.83,1.58-.41.46-.94.81-1.56,1.07-.63.25-1.33.38-2.11.38Z"/>
      <path class="cls-2" d="M247.23,125.42c-.64,0-1.21-.11-1.72-.33s-.9-.54-1.19-.98-.43-.98-.43-1.62c0-.56.1-1.02.3-1.39.2-.37.48-.67.84-.89.35-.22.76-.4,1.21-.51.45-.12.93-.2,1.43-.25.59-.05,1.06-.11,1.41-.16.35-.05.61-.14.77-.24.16-.11.24-.26.24-.48v-.05c0-.26-.06-.48-.19-.67-.12-.19-.3-.33-.54-.44-.24-.11-.52-.16-.85-.16s-.64.05-.89.16c-.25.11-.46.25-.61.43-.15.18-.26.39-.3.63l-2.51-.18c.1-.63.33-1.17.71-1.62.38-.45.87-.8,1.49-1.04.62-.24,1.34-.36,2.16-.36.61,0,1.17.07,1.68.21s.96.35,1.34.63c.38.28.67.63.88,1.05.21.42.31.91.31,1.47v6.64h-2.61v-1.38h-.05c-.17.31-.38.59-.65.82-.26.23-.57.41-.94.54-.37.13-.8.19-1.3.19ZM247.98,123.54c.43,0,.8-.08,1.12-.24s.56-.38.74-.66c.18-.28.26-.59.26-.94v-1.02c-.08.05-.19.09-.34.14-.14.04-.31.08-.49.12-.18.04-.37.07-.57.1-.2.03-.39.06-.58.09-.32.04-.6.12-.85.22-.25.1-.45.24-.59.42-.15.18-.22.39-.22.65,0,.24.06.45.19.62.13.17.3.3.53.38.23.09.49.13.79.13Z"/>
      <path class="cls-2" d="M254.85,125.25v-9.83h2.55l.06,2.32h-.18c.16-.57.4-1.04.7-1.41s.66-.64,1.08-.82c.41-.18.84-.27,1.29-.27.73,0,1.35.22,1.85.66s.83,1.07.99,1.91h-.3c.13-.56.36-1.03.69-1.42.32-.38.72-.67,1.17-.86.46-.19.95-.29,1.47-.29.62,0,1.17.13,1.65.4.48.27.87.66,1.15,1.17.28.51.42,1.14.42,1.87v6.57h-2.7v-6.06c0-.57-.16-1-.47-1.29-.31-.28-.7-.43-1.15-.43-.35,0-.64.08-.89.23-.25.15-.45.36-.58.63-.14.27-.2.58-.2.94v5.98h-2.6v-6.14c0-.5-.15-.89-.45-1.19-.3-.3-.68-.44-1.14-.44-.32,0-.61.07-.87.22-.26.15-.46.36-.61.65-.15.28-.23.63-.23,1.03v5.87h-2.7Z"/>
      <path class="cls-2" d="M276.01,125.45c-1,0-1.87-.21-2.6-.64-.73-.43-1.3-1.02-1.7-1.79-.4-.76-.6-1.66-.6-2.67s.2-1.89.6-2.66c.4-.77.96-1.37,1.68-1.81s1.55-.65,2.5-.65c.68,0,1.32.11,1.89.34.58.23,1.08.56,1.5.99s.75.96.99,1.59c.24.62.35,1.33.35,2.12v.73h-8.5v-1.71h7.2l-1.24.43c0-.5-.08-.94-.25-1.31-.17-.37-.42-.65-.74-.85s-.71-.3-1.17-.3-.84.1-1.17.3c-.32.2-.57.48-.75.84-.18.36-.26.78-.26,1.26v1.19c0,.53.09.99.28,1.37s.46.68.8.88c.35.2.76.3,1.23.3.34,0,.64-.05.91-.15s.49-.24.68-.42c.18-.18.32-.4.4-.64l2.45.2c-.14.6-.42,1.13-.83,1.58-.41.46-.94.81-1.56,1.07-.63.25-1.33.38-2.11.38Z"/>
      <path class="cls-2" d="M282.27,125.25v-9.83h2.61v1.7h.06c.18-.6.47-1.05.87-1.34s.91-.44,1.51-.44c.15,0,.3,0,.45.01.15,0,.28.02.39.04v2.34c-.11-.02-.28-.05-.5-.06-.22-.02-.45-.03-.66-.03-.39,0-.74.09-1.04.26s-.55.42-.72.74-.26.71-.26,1.17v5.45h-2.7Z"/>
      <path class="cls-2" d="M299.68,125.44c-1.22,0-2.31-.28-3.27-.84s-1.72-1.35-2.27-2.39-.83-2.28-.83-3.72.28-2.71.83-3.75c.55-1.04,1.31-1.84,2.27-2.39.96-.55,2.05-.83,3.26-.83.79,0,1.52.11,2.19.34.67.22,1.27.55,1.79.98s.94.94,1.28,1.55c.33.61.55,1.29.65,2.04h-2.82c-.07-.39-.2-.73-.37-1.03-.18-.3-.4-.55-.66-.77-.26-.21-.56-.37-.9-.48s-.71-.16-1.1-.16c-.74,0-1.38.18-1.92.54s-.96.88-1.25,1.55-.44,1.48-.44,2.41.15,1.75.44,2.42.71,1.18,1.25,1.54c.54.36,1.17.54,1.91.54.4,0,.77-.05,1.1-.16s.63-.27.9-.48c.27-.21.49-.46.67-.77.18-.3.31-.64.39-1.02h2.82c-.1.7-.3,1.34-.62,1.94s-.73,1.11-1.25,1.56c-.51.44-1.11.78-1.79,1.03s-1.43.37-2.25.37Z"/>
      <path class="cls-2" d="M309.98,111.73v13.52h-2.7v-13.52h2.7Z"/>
      <path class="cls-2" d="M313.41,114.16c-.43,0-.79-.14-1.08-.41-.29-.27-.44-.61-.44-1.01s.15-.73.44-1c.29-.27.65-.4,1.07-.4s.79.14,1.08.4c.29.27.44.6.44,1s-.15.74-.44,1.01c-.29.27-.65.41-1.07.41ZM312.06,125.25v-9.83h2.7v9.83h-2.7Z"/>
      <path class="cls-2" d="M316.84,129.04v-13.63h2.65v1.49h.08c.16-.31.38-.59.64-.83.26-.25.58-.45.94-.59.37-.15.8-.22,1.28-.22.79,0,1.49.2,2.11.61.62.41,1.11.99,1.47,1.75.36.76.54,1.67.54,2.73s-.18,1.97-.53,2.73c-.35.76-.84,1.35-1.46,1.76-.62.41-1.34.62-2.15.62-.48,0-.9-.08-1.27-.23s-.68-.35-.94-.61-.46-.55-.62-.87h-.05v5.31h-2.7ZM321.67,123.25c.45,0,.84-.12,1.16-.35.32-.24.57-.57.74-1.01.17-.44.25-.96.25-1.56s-.08-1.11-.25-1.55c-.17-.43-.41-.77-.74-1.01-.32-.24-.71-.36-1.16-.36s-.86.12-1.19.36-.59.58-.77,1.01c-.18.43-.27.94-.27,1.54s.09,1.1.27,1.54c.18.44.44.78.77,1.02.34.24.73.36,1.19.36Z"/>
      <path class="cls-2" d="M338.42,125.44c-1.22,0-2.31-.28-3.27-.84s-1.72-1.35-2.27-2.39-.83-2.28-.83-3.72.28-2.71.83-3.75c.55-1.04,1.31-1.84,2.27-2.39.96-.55,2.05-.83,3.26-.83.79,0,1.52.11,2.19.34.67.22,1.27.55,1.79.98s.94.94,1.28,1.55c.33.61.55,1.29.65,2.04h-2.82c-.07-.39-.2-.73-.37-1.03-.18-.3-.4-.55-.66-.77-.26-.21-.56-.37-.9-.48s-.71-.16-1.1-.16c-.74,0-1.38.18-1.92.54s-.96.88-1.25,1.55-.44,1.48-.44,2.41.15,1.75.44,2.42.71,1.18,1.25,1.54c.54.36,1.17.54,1.91.54.4,0,.77-.05,1.1-.16s.63-.27.9-.48c.27-.21.49-.46.67-.77.18-.3.31-.64.39-1.02h2.82c-.1.7-.3,1.34-.62,1.94s-.73,1.11-1.25,1.56c-.51.44-1.11.78-1.79,1.03s-1.43.37-2.25.37Z"/>
      <path class="cls-2" d="M350.52,125.45c-.99,0-1.85-.21-2.59-.64-.74-.43-1.31-1.02-1.72-1.79-.41-.76-.61-1.66-.61-2.67s.2-1.92.61-2.68c.41-.77.98-1.37,1.72-1.79.74-.43,1.6-.64,2.59-.64s1.87.21,2.6.64c.73.43,1.3,1.02,1.71,1.79.41.77.61,1.66.61,2.68s-.2,1.91-.61,2.67c-.41.77-.98,1.36-1.71,1.79-.73.43-1.6.64-2.6.64ZM350.52,123.3c.46,0,.85-.12,1.18-.37.32-.24.57-.59.75-1.03.18-.44.26-.96.26-1.55s-.09-1.11-.26-1.55c-.18-.44-.43-.79-.75-1.03-.32-.24-.72-.37-1.18-.37s-.84.12-1.17.37c-.33.24-.58.59-.75,1.03s-.26.96-.26,1.56.09,1.11.26,1.55c.17.44.42.78.75,1.03.33.24.72.37,1.17.37Z"/>
      <path class="cls-2" d="M357.1,125.25v-9.83h2.55l.06,2.32h-.18c.16-.57.4-1.04.7-1.41s.66-.64,1.08-.82c.41-.18.84-.27,1.29-.27.73,0,1.35.22,1.85.66s.83,1.07.99,1.91h-.3c.13-.56.36-1.03.69-1.42.32-.38.72-.67,1.17-.86.46-.19.95-.29,1.47-.29.62,0,1.17.13,1.65.4.48.27.87.66,1.15,1.17.28.51.42,1.14.42,1.87v6.57h-2.7v-6.06c0-.57-.16-1-.47-1.29-.31-.28-.7-.43-1.15-.43-.35,0-.64.08-.89.23-.25.15-.45.36-.58.63-.14.27-.2.58-.2.94v5.98h-2.6v-6.14c0-.5-.15-.89-.45-1.19-.3-.3-.68-.44-1.14-.44-.32,0-.61.07-.87.22-.26.15-.46.36-.61.65-.15.28-.23.63-.23,1.03v5.87h-2.7Z"/>
      <path class="cls-2" d="M373.79,129.04v-13.63h2.65v1.49h.08c.16-.31.38-.59.64-.83.26-.25.58-.45.94-.59.37-.15.8-.22,1.28-.22.79,0,1.49.2,2.11.61.62.41,1.11.99,1.47,1.75.36.76.54,1.67.54,2.73s-.18,1.97-.53,2.73c-.35.76-.84,1.35-1.46,1.76-.62.41-1.34.62-2.15.62-.48,0-.9-.08-1.27-.23s-.68-.35-.94-.61-.46-.55-.62-.87h-.05v5.31h-2.7ZM378.61,123.25c.45,0,.84-.12,1.16-.35.32-.24.57-.57.74-1.01.17-.44.25-.96.25-1.56s-.08-1.11-.25-1.55c-.17-.43-.41-.77-.74-1.01-.32-.24-.71-.36-1.16-.36s-.86.12-1.19.36-.59.58-.77,1.01c-.18.43-.27.94-.27,1.54s.09,1.1.27,1.54c.18.44.44.78.77,1.02.34.24.73.36,1.19.36Z"/>
      <path class="cls-2" d="M386.52,114.16c-.43,0-.79-.14-1.08-.41-.29-.27-.44-.61-.44-1.01s.15-.73.44-1c.29-.27.65-.4,1.07-.4s.79.14,1.08.4c.29.27.44.6.44,1s-.15.74-.44,1.01c-.29.27-.65.41-1.07.41ZM385.18,125.25v-9.83h2.7v9.83h-2.7Z"/>
      <path class="cls-2" d="M392.66,111.73v13.52h-2.7v-13.52h2.7Z"/>
      <path class="cls-2" d="M397.63,125.42c-.64,0-1.21-.11-1.72-.33s-.9-.54-1.19-.98-.43-.98-.43-1.62c0-.56.1-1.02.3-1.39.2-.37.48-.67.84-.89.35-.22.76-.4,1.21-.51.45-.12.93-.2,1.43-.25.59-.05,1.06-.11,1.41-.16.35-.05.61-.14.77-.24.16-.11.24-.26.24-.48v-.05c0-.26-.06-.48-.19-.67-.12-.19-.3-.33-.54-.44-.24-.11-.52-.16-.85-.16s-.64.05-.89.16c-.25.11-.46.25-.61.43-.15.18-.26.39-.3.63l-2.51-.18c.1-.63.33-1.17.71-1.62.38-.45.87-.8,1.49-1.04.62-.24,1.34-.36,2.16-.36.61,0,1.17.07,1.68.21.51.14.96.35,1.34.63.38.28.67.63.88,1.05.21.42.31.91.31,1.47v6.64h-2.61v-1.38h-.05c-.17.31-.38.59-.65.82-.26.23-.57.41-.94.54-.37.13-.8.19-1.3.19ZM398.38,123.54c.43,0,.8-.08,1.12-.24.32-.16.56-.38.74-.66.18-.28.26-.59.26-.94v-1.02c-.08.05-.19.09-.34.14-.15.04-.31.08-.49.12s-.37.07-.57.1c-.2.03-.39.06-.58.09-.32.04-.6.12-.85.22-.25.1-.45.24-.6.42-.14.18-.22.39-.22.65,0,.24.06.45.19.62.13.17.3.3.53.38.23.09.49.13.79.13Z"/>
      <path class="cls-2" d="M410.56,115.41v2.1h-6.18v-2.1h6.18ZM405.92,112.89h2.69v9.39c0,.33.07.56.21.69.14.14.38.2.73.2.13,0,.3,0,.5-.02s.35-.02.46-.03l.17,2.07c-.22.04-.48.07-.78.09-.29.02-.58.02-.87.02-1.04,0-1.82-.22-2.33-.67s-.77-1.12-.77-2.01v-9.73Z"/>
      <path class="cls-2" d="M413.44,114.16c-.43,0-.79-.14-1.08-.41s-.44-.61-.44-1.01.14-.73.44-1c.29-.27.65-.4,1.07-.4s.79.14,1.08.4c.29.27.44.6.44,1s-.15.74-.44,1.01-.65.41-1.07.41ZM412.09,125.25v-9.83h2.7v9.83h-2.7Z"/>
      <path class="cls-2" d="M421.36,125.45c-.99,0-1.85-.21-2.59-.64-.74-.43-1.31-1.02-1.72-1.79-.41-.76-.61-1.66-.61-2.67s.2-1.92.61-2.68c.41-.77.98-1.37,1.72-1.79.74-.43,1.6-.64,2.59-.64s1.87.21,2.6.64c.73.43,1.3,1.02,1.71,1.79.41.77.61,1.66.61,2.68s-.2,1.91-.61,2.67c-.41.77-.98,1.36-1.71,1.79-.73.43-1.6.64-2.6.64ZM421.36,123.3c.46,0,.85-.12,1.18-.37.32-.24.57-.59.75-1.03.18-.44.26-.96.26-1.55s-.09-1.11-.26-1.55c-.18-.44-.43-.79-.75-1.03-.32-.24-.72-.37-1.18-.37s-.85.12-1.17.37c-.33.24-.58.59-.75,1.03s-.26.96-.26,1.56.09,1.11.26,1.55c.17.44.42.78.75,1.03.33.24.72.37,1.17.37Z"/>
      <path class="cls-2" d="M430.65,119.67v5.57h-2.7v-9.83h2.61l.02,2.51h-.33c.29-.85.7-1.5,1.26-1.97.55-.47,1.26-.7,2.13-.7.69,0,1.29.15,1.81.45.51.3.91.73,1.19,1.3.28.56.42,1.25.42,2.05v6.2h-2.7v-5.72c0-.64-.16-1.13-.47-1.47-.32-.35-.76-.52-1.33-.52-.38,0-.71.08-.99.24-.29.16-.51.39-.68.71-.16.32-.25.71-.25,1.18Z"/>
      <path class="cls-2" d="M443.16,125.46c-.82,0-1.56-.12-2.2-.37-.64-.24-1.16-.6-1.55-1.07-.39-.47-.63-1.03-.71-1.69l2.59-.19c.08.44.28.77.6,1.01.32.24.74.35,1.28.35.51,0,.91-.1,1.2-.29.29-.19.44-.44.44-.74,0-.26-.11-.47-.32-.63-.21-.16-.53-.28-.95-.37l-1.72-.34c-.95-.19-1.67-.53-2.15-1-.49-.47-.73-1.08-.73-1.83,0-.63.17-1.17.51-1.63s.82-.82,1.45-1.07c.62-.25,1.35-.38,2.19-.38s1.53.12,2.14.37c.61.24,1.09.59,1.44,1.04.35.45.56.98.63,1.6l-2.45.19c-.05-.37-.22-.67-.52-.91s-.69-.36-1.17-.36c-.45,0-.82.1-1.1.29-.28.19-.42.43-.42.73,0,.25.1.46.3.63.2.17.51.29.93.38l1.82.35c.98.2,1.7.52,2.17.95s.7,1.01.7,1.72c0,.65-.19,1.22-.56,1.71-.38.48-.89.86-1.55,1.13s-1.42.4-2.28.4Z"/>
      <path class="cls-2" d="M458.95,115.41v2.1h-6.49v-2.1h6.49ZM454.23,125.25v-10.87c0-.65.13-1.2.38-1.63.25-.43.62-.76,1.1-.98s1.05-.33,1.71-.33c.37,0,.71.02,1.03.05.32.03.55.06.69.08l-.22,2.08c-.09-.02-.23-.03-.4-.05-.18-.01-.35-.02-.5-.02-.4,0-.68.09-.84.26s-.25.45-.25.82v10.58h-2.69Z"/>
      <path class="cls-2" d="M463.89,125.42c-.69,0-1.29-.15-1.81-.45s-.91-.73-1.19-1.3-.42-1.25-.42-2.05v-6.2h2.7v5.72c0,.63.16,1.12.47,1.47.31.34.76.52,1.33.52.38,0,.71-.08,1-.24.29-.16.51-.4.68-.72s.24-.71.24-1.18v-5.57h2.7v9.83h-2.61l-.02-2.51h.33c-.29.85-.71,1.51-1.27,1.98-.55.47-1.26.71-2.12.71ZM463,114.11c-.4,0-.74-.13-1.01-.4-.27-.27-.41-.59-.41-.98s.14-.71.41-.98c.27-.26.61-.4,1.01-.4s.75.13,1.02.4c.27.26.41.59.41.98s-.14.71-.41.98c-.27.27-.61.4-1.02.4ZM467.04,114.11c-.41,0-.75-.13-1.02-.4-.27-.27-.41-.59-.41-.98s.14-.71.41-.98c.27-.26.61-.4,1.02-.4s.74.13,1.01.4c.27.26.41.59.41.98s-.14.71-.41.98c-.27.27-.61.4-1.01.4Z"/>
      <path class="cls-2" d="M471.66,125.25v-9.83h2.61v1.7h.06c.18-.6.47-1.05.87-1.34.41-.3.91-.44,1.51-.44.15,0,.3,0,.45.01.14,0,.27.02.39.04v2.34c-.11-.02-.28-.05-.5-.06-.22-.02-.44-.03-.66-.03-.39,0-.74.09-1.04.26s-.55.42-.72.74-.26.71-.26,1.17v5.45h-2.7Z"/>
      <path class="cls-2" d="M486.78,125.44c-.81,0-1.52-.21-2.14-.62-.62-.41-1.11-1-1.47-1.76-.35-.76-.53-1.67-.53-2.73s.18-1.97.54-2.73c.36-.76.85-1.34,1.48-1.75.62-.4,1.33-.61,2.12-.61.48,0,.91.07,1.28.22.37.15.68.35.94.6.26.25.47.53.64.84h.05v-5.18h2.7v13.52h-2.66v-1.54h-.06c-.16.33-.37.63-.63.89s-.58.47-.95.62-.8.23-1.28.23ZM487.54,123.25c.45,0,.85-.12,1.18-.36.33-.24.59-.58.77-1.02.18-.44.27-.95.27-1.54s-.09-1.1-.27-1.54c-.18-.43-.44-.77-.77-1.01-.33-.24-.73-.36-1.19-.36s-.83.12-1.16.36c-.32.24-.57.57-.75,1.01s-.26.95-.26,1.55.09,1.12.26,1.56c.17.44.42.78.75,1.01.32.24.71.35,1.16.35Z"/>
      <path class="cls-2" d="M498.92,125.45c-1,0-1.87-.21-2.6-.64-.73-.43-1.3-1.02-1.7-1.79-.4-.76-.6-1.66-.6-2.67s.2-1.89.6-2.66c.4-.77.96-1.37,1.68-1.81s1.55-.65,2.5-.65c.69,0,1.32.11,1.89.34.58.23,1.08.56,1.5.99.42.44.75.96.99,1.59s.35,1.33.35,2.12v.73h-8.5v-1.71h7.2l-1.24.43c0-.5-.08-.94-.25-1.31s-.41-.65-.74-.85-.71-.3-1.17-.3-.84.1-1.17.3c-.32.2-.57.48-.75.84-.18.36-.26.78-.26,1.26v1.19c0,.53.09.99.28,1.37s.46.68.8.88.76.3,1.23.3c.34,0,.64-.05.91-.15s.49-.24.68-.42c.18-.18.32-.4.4-.64l2.45.2c-.14.6-.42,1.13-.83,1.58-.41.46-.94.81-1.56,1.07-.63.25-1.33.38-2.11.38Z"/>
      <path class="cls-2" d="M507.88,119.67v5.57h-2.7v-9.83h2.61l.02,2.51h-.33c.29-.85.7-1.5,1.26-1.97.55-.47,1.26-.7,2.13-.7.69,0,1.29.15,1.81.45.51.3.91.73,1.19,1.3.28.56.42,1.25.42,2.05v6.2h-2.7v-5.72c0-.64-.16-1.13-.47-1.47-.32-.35-.76-.52-1.33-.52-.38,0-.71.08-.99.24-.29.16-.51.39-.68.71-.16.32-.25.71-.25,1.18Z"/>
      <path class="cls-2" d="M520.04,114.08v-2.35h11.03v2.35h-4.12v11.17h-2.79v-11.17h-4.13Z"/>
      <path class="cls-2" d="M533.99,114.16c-.43,0-.79-.14-1.08-.41s-.44-.61-.44-1.01.14-.73.44-1c.29-.27.65-.4,1.07-.4s.79.14,1.08.4c.29.27.44.6.44,1s-.15.74-.44,1.01-.65.41-1.07.41ZM532.64,125.25v-9.83h2.7v9.83h-2.7Z"/>
      <path class="cls-2" d="M541.89,125.45c-1,0-1.87-.21-2.6-.64-.73-.43-1.3-1.02-1.7-1.79-.4-.76-.6-1.66-.6-2.67s.2-1.89.6-2.66c.4-.77.96-1.37,1.68-1.81s1.55-.65,2.5-.65c.69,0,1.32.11,1.89.34.58.23,1.08.56,1.5.99.42.44.75.96.99,1.59s.35,1.33.35,2.12v.73h-8.5v-1.71h7.2l-1.24.43c0-.5-.08-.94-.25-1.31s-.41-.65-.74-.85-.71-.3-1.17-.3-.84.1-1.17.3c-.32.2-.57.48-.75.84-.18.36-.26.78-.26,1.26v1.19c0,.53.09.99.28,1.37s.46.68.8.88.76.3,1.23.3c.34,0,.64-.05.91-.15s.49-.24.68-.42c.18-.18.32-.4.4-.64l2.45.2c-.14.6-.42,1.13-.83,1.58-.41.46-.94.81-1.56,1.07-.63.25-1.33.38-2.11.38Z"/>
      <path class="cls-2" d="M548.15,125.25v-9.83h2.61v1.7h.06c.18-.6.47-1.05.87-1.34.41-.3.91-.44,1.51-.44.15,0,.3,0,.45.01.14,0,.27.02.39.04v2.34c-.11-.02-.28-.05-.5-.06-.22-.02-.44-.03-.66-.03-.39,0-.74.09-1.04.26s-.55.42-.72.74-.26.71-.26,1.17v5.45h-2.7Z"/>
      <path class="cls-2" d="M559.38,125.46c-.82,0-1.56-.12-2.2-.37-.64-.24-1.16-.6-1.55-1.07-.39-.47-.63-1.03-.71-1.69l2.59-.19c.08.44.28.77.6,1.01.32.24.74.35,1.28.35.51,0,.91-.1,1.2-.29.29-.19.44-.44.44-.74,0-.26-.11-.47-.32-.63-.21-.16-.53-.28-.95-.37l-1.72-.34c-.95-.19-1.67-.53-2.15-1-.49-.47-.73-1.08-.73-1.83,0-.63.17-1.17.51-1.63s.82-.82,1.45-1.07c.62-.25,1.35-.38,2.19-.38s1.53.12,2.14.37c.61.24,1.09.59,1.44,1.04.35.45.56.98.63,1.6l-2.45.19c-.05-.37-.22-.67-.52-.91s-.69-.36-1.17-.36c-.45,0-.82.1-1.1.29-.28.19-.42.43-.42.73,0,.25.1.46.3.63.2.17.51.29.93.38l1.82.35c.98.2,1.7.52,2.17.95s.7,1.01.7,1.72c0,.65-.19,1.22-.56,1.71-.38.48-.89.86-1.55,1.13s-1.42.4-2.28.4Z"/>
      <path class="cls-2" d="M569.85,125.45c-.99,0-1.85-.21-2.58-.64s-1.3-1.03-1.7-1.79c-.4-.77-.6-1.65-.6-2.66s.2-1.91.6-2.68c.4-.77.97-1.37,1.7-1.8.73-.43,1.59-.64,2.58-.64.62,0,1.19.09,1.71.26.52.17.98.42,1.37.74.39.32.71.7.96,1.14.24.44.4.93.47,1.48l-2.56.21c-.05-.25-.12-.48-.23-.69-.1-.2-.24-.38-.4-.53-.16-.15-.35-.26-.57-.34-.22-.08-.46-.12-.72-.12-.46,0-.85.12-1.18.37s-.58.59-.75,1.03c-.17.44-.25.96-.25,1.56s.08,1.11.25,1.55c.17.44.42.79.75,1.03s.72.37,1.18.37c.27,0,.51-.04.72-.12.21-.08.4-.19.56-.34s.29-.33.4-.54c.11-.21.18-.45.23-.71l2.57.2c-.06.55-.21,1.05-.45,1.49-.24.44-.56.83-.96,1.15-.4.32-.86.57-1.38.75-.52.18-1.1.26-1.72.26Z"/>
      <path class="cls-2" d="M578.7,119.67v5.57h-2.7v-13.52h2.67v6.2h-.37c.29-.85.7-1.5,1.26-1.97.55-.47,1.26-.7,2.13-.7.69,0,1.29.15,1.81.45.51.3.91.73,1.19,1.3.28.56.42,1.25.42,2.05v6.2h-2.7v-5.72c0-.64-.16-1.13-.47-1.47-.32-.35-.76-.52-1.33-.52-.38,0-.71.08-.99.24-.29.16-.51.39-.68.71-.16.32-.25.71-.25,1.18Z"/>
      <path class="cls-2" d="M590.63,125.42c-.69,0-1.29-.15-1.81-.45s-.91-.73-1.19-1.3-.42-1.25-.42-2.05v-6.2h2.7v5.72c0,.63.16,1.12.47,1.47.31.34.76.52,1.33.52.38,0,.71-.08,1-.24.29-.16.51-.4.68-.72s.24-.71.24-1.18v-5.57h2.7v9.83h-2.61l-.02-2.51h.33c-.29.85-.71,1.51-1.27,1.98-.55.47-1.26.71-2.12.71Z"/>
      <path class="cls-2" d="M603.72,115.41v2.1h-6.18v-2.1h6.18ZM599.08,112.89h2.69v9.39c0,.33.07.56.21.69.14.14.38.2.73.2.13,0,.3,0,.5-.02s.35-.02.46-.03l.17,2.07c-.22.04-.48.07-.78.09-.29.02-.58.02-.87.02-1.04,0-1.82-.22-2.33-.67s-.77-1.12-.77-2.01v-9.73Z"/>
      <path class="cls-2" d="M605.18,125.25v-1.73l4.87-5.9v-.05h-4.81v-2.16h8.02v1.86l-4.69,5.78v.05h4.8v2.15h-8.2Z"/>
    </g>
    <g>
      <path class="cls-4" d="M627.44,109.54v-8.89h7.39s0-54.09,0-54.09h-7.39v-8.89h18.69v71.87h-18.69Z"/>
      <path class="cls-4" d="M174.65,109.54V37.67h18.69v8.89h-7.39v54.09h7.39v8.89h-18.69Z"/>
    </g>
  </g>
</svg>
