<?xml version="1.0" encoding="UTF-8"?>
<svg id="Ebene_1" data-name="Ebene 1" xmlns="http://www.w3.org/2000/svg" viewBox="0 0 739.3 738.13">
  <defs>
    <style>
      .cls-1 {
        fill: #29235c;
      }

      .cls-2 {
        fill: #fff;
      }

      .cls-3 {
        fill: #e71d73;
      }
    </style>
  </defs>
  <circle class="cls-2" cx="369.65" cy="369.06" r="347.2"/>
  <g>
    <g>
      <path class="cls-1" d="M365.99,208.65l-.03.03s.03.03.04.05c0-.02,0-.05,0-.08Z"/>
      <path class="cls-1" d="M498.58,303.57c-1.06,2.03-2.24,3.97-3.56,5.84-.94,1.35-1.96,2.67-3.03,3.94-10.31,12.18-26,19.97-43.56,19.97-19.96,0-37.53-10.08-47.49-25.23-5.5-8.35-8.68-18.24-8.68-28.83s3.18-20.49,8.68-28.84c-5.19-17.23-14.93-32.63-27.88-44.89-.02-.02-.03-.03-.03-.03-19.42-18.4-46.06-29.77-75.4-29.77-59.3,0-107.55,46.44-107.55,103.53,0,8.54,1.08,16.85,3.13,24.79h54.51c-3.99-7.43-6.25-15.86-6.25-24.79,0-29.82,25.19-54.07,56.16-54.07,19.96,0,37.52,10.07,47.49,25.22-2.78,9.16-4.26,18.84-4.26,28.85s1.48,19.69,4.25,28.85c5.21,17.23,14.95,32.63,27.91,44.91,19.06,18.06,45.08,29.34,73.77,29.75l-79.4,122.02-72.45-122.05-23.32-39.28h-59.19l152.95,257.62,168.78-259.38c8.8-11.17,15.29-24.09,18.81-38.11h-54.41ZM365.96,208.68l.03-.03s0,.06,0,.08c0-.02-.03-.03-.04-.05Z"/>
      <path class="cls-1" d="M252.91,311.9c-.45-.57-.89-1.14-1.31-1.72l.21-.12,1.1,1.84Z"/>
      <path class="cls-1" d="M495.02,309.4c-.94,1.35-1.96,2.67-3.03,3.93l2.69-4.14.34.2Z"/>
    </g>
    <path class="cls-1" d="M365.99,208.65l-.03.03s.03.03.04.05c0-.02,0-.05,0-.08ZM441.36,178.9c-16.93,0-32.96,3.78-47.21,10.53,0,0,14.95,16.27,25.89,42.99,6.58-2.62,13.78-4.06,21.33-4.06,18.82,0,35.5,8.96,45.69,22.68h56.8c-13.85-41.79-54.56-72.14-102.49-72.14Z"/>
  </g>
  <path class="cls-3" d="M369.65,738.13c-49.89,0-98.3-9.76-143.89-29.01-44.02-18.59-83.55-45.2-117.49-79.08-33.94-33.89-60.59-73.35-79.21-117.3C9.78,467.21,0,418.88,0,369.06s9.78-98.15,29.06-143.66c18.62-43.95,45.27-83.42,79.21-117.3,33.94-33.89,73.47-60.49,117.49-79.08C271.35,9.76,319.76,0,369.65,0s98.3,9.76,143.89,29.01c44.02,18.59,83.55,45.2,117.49,79.08s60.59,73.35,79.21,117.3c19.28,45.52,29.06,93.85,29.06,143.66s-9.78,98.15-29.06,143.67c-18.62,43.95-45.27,83.42-79.21,117.3-33.94,33.89-73.47,60.49-117.49,79.08-45.59,19.25-94,29.01-143.89,29.01ZM369.65,54.72c-173.6,0-314.84,141.01-314.84,314.34s141.24,314.34,314.84,314.34,314.84-141.01,314.84-314.34S543.25,54.72,369.65,54.72Z"/>
</svg>
