<?xml version="1.0" encoding="UTF-8"?>
<svg id="Ebene_1" data-name="Ebene 1" xmlns="http://www.w3.org/2000/svg" viewBox="0 0 382.11 381.51">
  <defs>
    <style>
      .cls-1 {
        fill: #fff;
      }

      .cls-2 {
        fill: #e71d73;
      }
    </style>
  </defs>
  <g>
    <g>
      <path class="cls-1" d="M189.17,107.84h-.01s.01.03.02.04c0,0,0-.02,0-.04Z"/>
      <path class="cls-1" d="M257.7,156.9c-.55,1.05-1.16,2.05-1.84,3.02-.49.7-1.01,1.38-1.57,2.03-5.33,6.3-13.44,10.32-22.51,10.32-10.32,0-19.4-5.21-24.55-13.04-2.84-4.32-4.49-9.43-4.49-14.9s1.65-10.59,4.49-14.91c-2.68-8.91-7.72-16.87-14.41-23.2,0,0-.01-.01-.01-.01-10.04-9.51-23.81-15.39-38.97-15.39-30.65,0-55.59,24-55.59,53.51,0,4.42.56,8.71,1.62,12.81h28.17c-2.06-3.84-3.23-8.2-3.23-12.81,0-15.41,13.02-27.95,29.03-27.95,10.32,0,19.39,5.21,24.55,13.04-1.44,4.73-2.2,9.74-2.2,14.91s.77,10.18,2.2,14.91c2.69,8.91,7.73,16.87,14.43,23.21,9.85,9.33,23.3,15.16,38.13,15.38l-41.04,63.07-37.45-63.08-12.05-20.3h-30.59l79.05,133.15,87.24-134.06c4.55-5.77,7.9-12.45,9.72-19.7h-28.12ZM189.15,107.86h.01s0,.01,0,.02c0,0-.01-.01-.02-.02Z"/>
      <path class="cls-1" d="M130.72,161.21c-.23-.29-.46-.59-.68-.89l.11-.06.57.95Z"/>
      <path class="cls-1" d="M255.86,159.92c-.49.7-1.01,1.38-1.57,2.03l1.39-2.14.18.11Z"/>
    </g>
    <path class="cls-1" d="M189.17,107.84h-.01s.01.03.02.04c0,0,0-.02,0-.04ZM228.12,92.47c-8.75,0-17.04,1.96-24.4,5.44,0,0,7.73,8.41,13.38,22.22,3.4-1.35,7.12-2.1,11.02-2.1,9.73,0,18.35,4.63,23.62,11.72h29.36c-7.16-21.6-28.2-37.28-52.97-37.28Z"/>
  </g>
  <path class="cls-2" d="M191.06,381.51c-25.79,0-50.81-5.05-74.37-15-22.75-9.61-43.18-23.36-60.73-40.87-17.54-17.51-31.32-37.91-40.94-60.63C5.05,241.48,0,216.5,0,190.75s5.05-50.73,15.02-74.25c9.62-22.72,23.4-43.11,40.94-60.63,17.54-17.51,37.97-31.27,60.73-40.87C140.25,5.05,165.27,0,191.06,0s50.81,5.05,74.37,15c22.75,9.61,43.18,23.36,60.73,40.87,17.54,17.51,31.32,37.91,40.94,60.63,9.97,23.53,15.02,48.51,15.02,74.25s-5.05,50.73-15.02,74.25c-9.62,22.72-23.4,43.11-40.94,60.63-17.54,17.51-37.97,31.27-60.73,40.87-23.56,9.95-48.59,15-74.37,15ZM191.06,28.28C101.33,28.28,28.33,101.17,28.33,190.75s73,162.47,162.73,162.47,162.73-72.88,162.73-162.47S280.78,28.28,191.06,28.28Z"/>
</svg>
