<?xml version="1.0" encoding="UTF-8"?>
<svg id="Ebene_1" data-name="Ebene 1" xmlns="http://www.w3.org/2000/svg" viewBox="0 0 688.29 174.41">
  <defs>
    <style>
      .cls-1 {
        fill: #29235c;
      }

      .cls-2 {
        fill: #1d1d1b;
      }

      .cls-3 {
        fill: #e71d73;
      }
    </style>
  </defs>
  <g>
    <path class="cls-1" d="M102.6,123.69L59.2,0h28.02l19.96,59.94c2.33,7.53,4.75,15.73,7.28,24.62,2.52,8.88,5.22,18.58,8.11,29.1h-6.49c2.77-10.57,5.38-20.28,7.82-29.14,2.44-8.85,4.79-17.04,7.07-24.57L150.24,0h27.77l-42.57,123.69h-32.84Z"/>
    <path class="cls-1" d="M190.32,123.69V0h25.44v49.81h53.21V0h25.53v123.69h-25.53v-52.38h-53.21v52.38h-25.44Z"/>
    <path class="cls-1" d="M355.12,125.6c-9.15,0-17.07-1.95-23.78-5.85-6.71-3.9-11.89-9.35-15.55-16.35-3.66-7-5.49-15.15-5.49-24.45s1.84-17.29,5.53-24.32c3.69-7.03,8.81-12.54,15.38-16.52,6.57-3.98,14.2-5.98,22.91-5.98,6.26,0,12.04,1.04,17.34,3.11s9.88,5.11,13.76,9.09c3.88,3.99,6.9,8.83,9.06,14.53s3.24,12.18,3.24,19.42v6.73h-77.82v-15.61h65.85l-11.31,3.9c0-4.59-.78-8.58-2.33-11.95-1.55-3.38-3.8-5.98-6.73-7.8-2.94-1.83-6.51-2.74-10.73-2.74s-7.72.93-10.68,2.78c-2.97,1.85-5.25,4.43-6.86,7.72-1.61,3.29-2.41,7.13-2.41,11.5v10.87c0,4.87.86,9.06,2.58,12.58,1.72,3.52,4.17,6.2,7.36,8.05,3.19,1.85,6.94,2.78,11.27,2.78,3.1,0,5.87-.44,8.31-1.33,2.44-.88,4.5-2.16,6.19-3.82,1.69-1.66,2.92-3.62,3.7-5.89l22.45,1.83c-1.28,5.48-3.81,10.31-7.61,14.49-3.8,4.18-8.56,7.43-14.3,9.75-5.74,2.32-12.18,3.49-19.33,3.49Z"/>
    <path class="cls-1" d="M440.26,125.27c-5.88,0-11.11-1-15.71-2.99-4.6-1.99-8.22-4.98-10.85-8.97-2.63-3.98-3.95-8.94-3.95-14.86,0-5.09.93-9.33,2.79-12.7,1.86-3.37,4.41-6.09,7.65-8.13,3.24-2.05,6.94-3.61,11.1-4.69,4.16-1.08,8.51-1.84,13.05-2.28,5.38-.5,9.67-1,12.89-1.49,3.21-.5,5.56-1.23,7.03-2.2,1.47-.97,2.2-2.42,2.2-4.36v-.5c0-2.38-.57-4.43-1.71-6.14s-2.79-3.06-4.95-4.03c-2.16-.97-4.77-1.45-7.82-1.45s-5.82.49-8.15,1.45c-2.33.97-4.2,2.28-5.61,3.94s-2.34,3.57-2.79,5.73l-22.95-1.66c.88-5.76,3.05-10.71,6.49-14.86,3.44-4.15,7.98-7.33,13.64-9.55,5.66-2.21,12.25-3.32,19.79-3.32,5.54,0,10.67.64,15.38,1.91,4.71,1.27,8.8,3.2,12.26,5.77,3.46,2.57,6.15,5.77,8.06,9.59,1.91,3.82,2.87,8.3,2.87,13.45v60.77h-23.86v-12.62h-.5c-1.55,2.88-3.52,5.38-5.9,7.51-2.38,2.13-5.25,3.78-8.61,4.94-3.36,1.16-7.3,1.74-11.85,1.74ZM447.16,108.09c3.93,0,7.36-.75,10.27-2.24,2.91-1.49,5.17-3.51,6.78-6.06,1.61-2.55,2.41-5.42,2.41-8.63v-9.38c-.72.44-1.75.86-3.08,1.24-1.33.39-2.83.76-4.49,1.12s-3.4.68-5.2.95c-1.8.28-3.56.55-5.28.83-2.88.39-5.48,1.05-7.77,1.99-2.3.94-4.12,2.21-5.45,3.82-1.33,1.61-1.99,3.6-1.99,5.98,0,2.21.58,4.1,1.75,5.65,1.16,1.55,2.79,2.73,4.86,3.53,2.08.8,4.48,1.2,7.19,1.2Z"/>
    <path class="cls-1" d="M510.02,123.69V33.7h23.86v15.52h.58c1.61-5.48,4.27-9.57,7.98-12.29,3.71-2.71,8.31-4.07,13.8-4.07,1.39,0,2.74.04,4.07.12,1.33.08,2.52.21,3.58.37v21.42c-1-.22-2.52-.42-4.57-.58-2.05-.17-4.07-.25-6.07-.25-3.55,0-6.73.79-9.56,2.37-2.83,1.58-5.03,3.85-6.61,6.81-1.58,2.96-2.37,6.52-2.37,10.67v49.89h-24.69Z"/>
    <path class="cls-1" d="M628.01,33.7v19.18h-56.54v-19.18h56.54ZM585.6,10.63h24.61v85.92c0,2.99.64,5.1,1.91,6.35s3.49,1.87,6.65,1.87c1.22,0,2.73-.05,4.53-.17s3.2-.19,4.2-.25l1.58,18.93c-2.05.39-4.42.65-7.11.79-2.69.14-5.33.21-7.94.21-9.53,0-16.66-2.05-21.37-6.14-4.71-4.09-7.07-10.24-7.07-18.43V10.63Z"/>
  </g>
  <g>
    <path class="cls-2" d="M55.59,169.17c-1.65,0-3.06-.26-4.24-.77-1.19-.51-2.1-1.26-2.74-2.25s-.97-2.19-.99-3.6h3.94c.03.7.21,1.29.55,1.77.34.48.81.85,1.4,1.1.59.25,1.29.38,2.08.38.74,0,1.39-.1,1.94-.31.55-.21.98-.5,1.29-.88s.46-.82.46-1.32c0-.44-.13-.82-.38-1.12-.26-.31-.64-.58-1.15-.81-.51-.23-1.16-.43-1.95-.61l-2.12-.49c-1.83-.42-3.22-1.07-4.17-1.96s-1.43-2.05-1.43-3.47c0-1.2.32-2.25.95-3.14s1.51-1.59,2.63-2.09,2.42-.75,3.89-.75,2.79.25,3.89.75,1.95,1.22,2.56,2.14c.61.92.93,2.01.97,3.26h-3.87c-.07-.87-.42-1.56-1.05-2.05-.63-.49-1.46-.74-2.51-.74-.67,0-1.26.1-1.76.3s-.89.48-1.17.84-.41.77-.41,1.24c0,.44.13.81.38,1.12.26.3.63.56,1.13.77s1.09.4,1.79.56l1.84.42c.95.21,1.8.48,2.55.8.74.32,1.37.71,1.88,1.17.51.46.9,1,1.17,1.61.27.61.4,1.31.4,2.09,0,1.24-.31,2.31-.93,3.21-.62.91-1.51,1.6-2.67,2.09s-2.54.73-4.15.73Z"/>
    <path class="cls-2" d="M73.61,154.51v3.06h-9.02v-3.06h9.02ZM66.85,150.83h3.93v13.71c0,.48.1.81.31,1.01.2.2.56.3,1.06.3.19,0,.44,0,.72-.03.29-.02.51-.03.67-.04l.25,3.02c-.33.06-.71.1-1.13.13-.43.02-.85.03-1.27.03-1.52,0-2.66-.33-3.41-.98s-1.13-1.63-1.13-2.94v-14.21Z"/>
    <path class="cls-2" d="M75.86,168.87v-14.36h3.81v2.48h.09c.26-.87.68-1.53,1.27-1.96s1.33-.65,2.2-.65c.22,0,.44,0,.65.02.21.01.4.03.57.06v3.42c-.16-.04-.4-.07-.73-.09-.33-.03-.65-.04-.97-.04-.57,0-1.07.13-1.53.38s-.8.61-1.05,1.09-.38,1.04-.38,1.7v7.96h-3.94Z"/>
    <path class="cls-2" d="M92.57,169.17c-1.46,0-2.72-.31-3.79-.93-1.07-.62-1.9-1.49-2.48-2.61-.58-1.12-.88-2.42-.88-3.9s.29-2.76.88-3.88c.59-1.12,1.41-2,2.45-2.64s2.27-.95,3.65-.95c1,0,1.92.17,2.77.5.84.33,1.58.82,2.2,1.45s1.1,1.41,1.45,2.32c.34.91.52,1.94.52,3.1v1.07h-12.42v-2.49h10.51l-1.8.62c0-.73-.12-1.37-.37-1.91-.25-.54-.61-.95-1.07-1.25s-1.04-.44-1.71-.44-1.23.15-1.7.44c-.47.3-.84.71-1.09,1.23-.26.53-.38,1.14-.38,1.83v1.73c0,.78.14,1.45.41,2.01s.67.99,1.17,1.29c.51.3,1.11.44,1.8.44.5,0,.94-.07,1.33-.21s.72-.34.99-.61c.27-.26.47-.58.59-.94l3.58.29c-.2.88-.61,1.65-1.21,2.31-.61.67-1.37,1.19-2.28,1.56-.92.37-1.94.56-3.08.56Z"/>
    <path class="cls-2" d="M106.15,169.12c-.94,0-1.77-.16-2.51-.48s-1.31-.79-1.73-1.43-.63-1.43-.63-2.37c0-.81.15-1.49.44-2.03.3-.54.7-.97,1.22-1.3.52-.33,1.11-.58,1.77-.75.66-.17,1.36-.29,2.08-.36.86-.08,1.54-.16,2.06-.24.51-.08.89-.2,1.12-.35.23-.15.35-.38.35-.69v-.08c0-.38-.09-.71-.27-.98-.18-.27-.44-.49-.79-.64-.34-.15-.76-.23-1.25-.23s-.93.08-1.3.23c-.37.15-.67.36-.9.63-.23.26-.37.57-.44.91l-3.66-.26c.14-.92.49-1.71,1.03-2.37.55-.66,1.27-1.17,2.18-1.52.9-.35,1.95-.53,3.16-.53.88,0,1.7.1,2.45.3s1.4.51,1.96.92c.55.41.98.92,1.29,1.53.3.61.46,1.32.46,2.15v9.69h-3.81v-2.01h-.08c-.25.46-.56.86-.94,1.2-.38.34-.84.6-1.37.79-.54.18-1.17.28-1.89.28ZM107.25,166.38c.63,0,1.17-.12,1.64-.36s.82-.56,1.08-.97c.26-.41.38-.87.38-1.38v-1.5c-.12.07-.28.14-.49.2-.21.06-.45.12-.72.18-.27.06-.54.11-.83.15-.29.04-.57.09-.84.13-.46.06-.87.17-1.24.32-.37.15-.66.35-.87.61-.21.26-.32.57-.32.95,0,.35.09.65.28.9.19.25.44.43.78.56.33.13.71.19,1.15.19Z"/>
    <path class="cls-2" d="M117.28,168.87v-14.36h3.73l.09,3.39h-.27c.24-.84.58-1.52,1.03-2.06s.97-.93,1.57-1.19c.6-.26,1.23-.39,1.88-.39,1.07,0,1.97.32,2.7.96s1.21,1.57,1.44,2.79h-.44c.19-.82.53-1.51,1-2.07.47-.56,1.04-.98,1.71-1.26.67-.28,1.38-.42,2.14-.42.9,0,1.71.19,2.41.58.71.39,1.27.96,1.68,1.71.41.75.62,1.66.62,2.73v9.59h-3.94v-8.85c0-.84-.23-1.47-.68-1.88-.46-.41-1.02-.62-1.68-.62-.5,0-.94.11-1.31.33-.37.22-.65.53-.85.92-.2.39-.3.85-.3,1.37v8.73h-3.79v-8.97c0-.72-.22-1.3-.65-1.73-.43-.43-.99-.65-1.67-.65-.47,0-.89.11-1.27.32-.38.22-.67.53-.9.95-.22.42-.33.92-.33,1.51v8.57h-3.94Z"/>
    <path class="cls-2" d="M148.16,169.17c-1.46,0-2.72-.31-3.79-.93-1.07-.62-1.9-1.49-2.48-2.61-.58-1.12-.88-2.42-.88-3.9s.29-2.76.88-3.88c.59-1.12,1.41-2,2.45-2.64s2.27-.95,3.65-.95c1,0,1.92.17,2.77.5.84.33,1.58.82,2.2,1.45s1.1,1.41,1.45,2.32c.34.91.52,1.94.52,3.1v1.07h-12.42v-2.49h10.51l-1.8.62c0-.73-.12-1.37-.37-1.91-.25-.54-.61-.95-1.07-1.25s-1.04-.44-1.71-.44-1.23.15-1.7.44c-.47.3-.84.71-1.09,1.23-.26.53-.38,1.14-.38,1.83v1.73c0,.78.14,1.45.41,2.01s.67.99,1.17,1.29c.51.3,1.11.44,1.8.44.5,0,.94-.07,1.33-.21s.72-.34.99-.61c.27-.26.47-.58.59-.94l3.58.29c-.2.88-.61,1.65-1.21,2.31-.61.67-1.37,1.19-2.28,1.56-.92.37-1.94.56-3.08.56Z"/>
    <path class="cls-2" d="M157.3,168.87v-14.36h3.81v2.48h.09c.26-.87.68-1.53,1.27-1.96s1.33-.65,2.2-.65c.22,0,.44,0,.65.02.21.01.4.03.57.06v3.42c-.16-.04-.4-.07-.73-.09-.33-.03-.65-.04-.97-.04-.57,0-1.07.13-1.53.38s-.8.61-1.05,1.09-.38,1.04-.38,1.7v7.96h-3.94Z"/>
    <path class="cls-2" d="M182.72,169.16c-1.78,0-3.37-.41-4.77-1.22s-2.5-1.98-3.31-3.49-1.21-3.33-1.21-5.44.4-3.95,1.21-5.47c.8-1.52,1.91-2.68,3.32-3.49,1.41-.81,2.99-1.21,4.76-1.21,1.15,0,2.22.16,3.2.49.98.33,1.85.8,2.61,1.42s1.38,1.38,1.86,2.26c.49.88.8,1.88.95,2.98h-4.11c-.11-.56-.29-1.07-.54-1.5-.26-.44-.58-.81-.96-1.12-.38-.31-.82-.54-1.32-.7s-1.03-.24-1.6-.24c-1.08,0-2.01.26-2.8.79s-1.4,1.29-1.82,2.26-.64,2.15-.64,3.52.21,2.55.64,3.53,1.04,1.72,1.82,2.24c.79.52,1.72.78,2.79.78.58,0,1.12-.08,1.6-.24s.92-.39,1.31-.7c.39-.3.71-.68.97-1.12.26-.44.45-.94.56-1.5h4.11c-.14,1.02-.44,1.96-.91,2.83s-1.07,1.63-1.82,2.27c-.75.64-1.62,1.15-2.61,1.5s-2.09.54-3.29.54Z"/>
    <path class="cls-2" d="M197.76,149.14v19.73h-3.94v-19.73h3.94Z"/>
    <path class="cls-2" d="M202.76,152.69c-.63,0-1.15-.2-1.58-.6-.42-.4-.64-.89-.64-1.47s.21-1.07.64-1.46c.42-.39.95-.59,1.57-.59s1.15.2,1.58.59c.42.39.64.88.64,1.46s-.21,1.07-.64,1.47c-.42.4-.95.6-1.57.6ZM200.8,168.87v-14.36h3.94v14.36h-3.94Z"/>
    <path class="cls-2" d="M207.77,174.41v-19.89h3.87v2.17h.12c.24-.45.55-.86.93-1.22.38-.36.84-.65,1.38-.87.54-.22,1.16-.32,1.87-.32,1.15,0,2.18.3,3.08.89.91.59,1.62,1.44,2.15,2.55.53,1.11.79,2.44.79,3.98s-.26,2.87-.77,3.99c-.51,1.11-1.23,1.97-2.14,2.57-.91.6-1.96.9-3.14.9-.7,0-1.32-.11-1.85-.33s-.99-.52-1.37-.89-.68-.8-.91-1.26h-.08v7.75h-3.94ZM214.82,165.96c.66,0,1.23-.17,1.7-.52.47-.34.83-.84,1.07-1.48.25-.64.37-1.4.37-2.27s-.12-1.63-.37-2.26c-.25-.63-.61-1.12-1.07-1.47-.47-.35-1.03-.52-1.7-.52s-1.25.18-1.74.53-.86.85-1.12,1.48c-.26.63-.39,1.38-.39,2.24s.13,1.61.39,2.25c.26.64.64,1.14,1.13,1.49.49.35,1.07.53,1.73.53Z"/>
    <path class="cls-2" d="M239.28,169.16c-1.78,0-3.37-.41-4.77-1.22s-2.5-1.98-3.31-3.49-1.21-3.33-1.21-5.44.4-3.95,1.21-5.47c.8-1.52,1.91-2.68,3.32-3.49,1.41-.81,2.99-1.21,4.76-1.21,1.15,0,2.22.16,3.2.49.98.33,1.85.8,2.61,1.42s1.38,1.38,1.86,2.26c.49.88.8,1.88.95,2.98h-4.11c-.11-.56-.29-1.07-.54-1.5-.26-.44-.58-.81-.96-1.12-.38-.31-.82-.54-1.32-.7s-1.03-.24-1.6-.24c-1.08,0-2.01.26-2.8.79s-1.4,1.29-1.82,2.26-.64,2.15-.64,3.52.21,2.55.64,3.53,1.04,1.72,1.82,2.24c.79.52,1.72.78,2.79.78.58,0,1.12-.08,1.6-.24s.92-.39,1.31-.7c.39-.3.71-.68.97-1.12.26-.44.45-.94.56-1.5h4.11c-.14,1.02-.44,1.96-.91,2.83s-1.07,1.63-1.82,2.27c-.75.64-1.62,1.15-2.61,1.5s-2.09.54-3.29.54Z"/>
    <path class="cls-2" d="M256.93,169.17c-1.44,0-2.7-.31-3.78-.93-1.08-.62-1.91-1.49-2.51-2.61-.59-1.12-.89-2.42-.89-3.9s.3-2.8.89-3.92c.59-1.12,1.43-1.99,2.51-2.62,1.08-.62,2.34-.93,3.78-.93s2.72.31,3.79.93c1.07.62,1.9,1.49,2.49,2.62.59,1.12.89,2.43.89,3.92s-.3,2.78-.89,3.9c-.59,1.12-1.42,1.99-2.49,2.61-1.07.62-2.33.93-3.79.93ZM256.93,166.02c.67,0,1.25-.18,1.72-.54.47-.36.84-.86,1.09-1.5.26-.65.38-1.4.38-2.26s-.13-1.62-.38-2.26c-.26-.65-.62-1.15-1.09-1.5-.47-.36-1.05-.54-1.72-.54s-1.23.18-1.71.54c-.48.36-.84.86-1.09,1.5s-.38,1.4-.38,2.27.13,1.62.38,2.26c.25.64.62,1.15,1.09,1.5.48.36,1.05.54,1.71.54Z"/>
    <path class="cls-2" d="M266.55,168.87v-14.36h3.73l.09,3.39h-.27c.24-.84.58-1.52,1.03-2.06s.97-.93,1.57-1.19c.6-.26,1.23-.39,1.88-.39,1.07,0,1.97.32,2.7.96s1.21,1.57,1.44,2.79h-.44c.19-.82.53-1.51,1-2.07.47-.56,1.04-.98,1.71-1.26.67-.28,1.38-.42,2.14-.42.9,0,1.71.19,2.41.58.71.39,1.27.96,1.68,1.71.41.75.62,1.66.62,2.73v9.59h-3.94v-8.85c0-.84-.23-1.47-.68-1.88-.46-.41-1.02-.62-1.68-.62-.5,0-.94.11-1.31.33-.37.22-.65.53-.85.92-.2.39-.3.85-.3,1.37v8.73h-3.79v-8.97c0-.72-.22-1.3-.65-1.73-.43-.43-.99-.65-1.67-.65-.47,0-.89.11-1.27.32-.38.22-.67.53-.9.95-.22.42-.33.92-.33,1.51v8.57h-3.94Z"/>
    <path class="cls-2" d="M290.91,174.41v-19.89h3.87v2.17h.12c.24-.45.55-.86.93-1.22.38-.36.84-.65,1.38-.87.54-.22,1.16-.32,1.87-.32,1.15,0,2.18.3,3.08.89.91.59,1.62,1.44,2.15,2.55.53,1.11.79,2.44.79,3.98s-.26,2.87-.77,3.99c-.51,1.11-1.23,1.97-2.14,2.57-.91.6-1.96.9-3.14.9-.7,0-1.32-.11-1.85-.33s-.99-.52-1.37-.89-.68-.8-.91-1.26h-.08v7.75h-3.94ZM297.95,165.96c.66,0,1.23-.17,1.7-.52.47-.34.83-.84,1.07-1.48.25-.64.37-1.4.37-2.27s-.12-1.63-.37-2.26c-.25-.63-.61-1.12-1.07-1.47-.47-.35-1.03-.52-1.7-.52s-1.25.18-1.74.53-.86.85-1.12,1.48c-.26.63-.39,1.38-.39,2.24s.13,1.61.39,2.25c.26.64.64,1.14,1.13,1.49.49.35,1.07.53,1.73.53Z"/>
    <path class="cls-2" d="M309.5,152.69c-.63,0-1.15-.2-1.58-.6-.42-.4-.64-.89-.64-1.47s.21-1.07.64-1.46c.42-.39.95-.59,1.57-.59s1.15.2,1.58.59c.42.39.64.88.64,1.46s-.21,1.07-.64,1.47c-.42.4-.95.6-1.57.6ZM307.54,168.87v-14.36h3.94v14.36h-3.94Z"/>
    <path class="cls-2" d="M318.46,149.14v19.73h-3.94v-19.73h3.94Z"/>
    <path class="cls-2" d="M325.71,169.12c-.94,0-1.77-.16-2.51-.48s-1.31-.79-1.73-1.43-.63-1.43-.63-2.37c0-.81.15-1.49.44-2.03.3-.54.7-.97,1.22-1.3.52-.33,1.11-.58,1.77-.75.66-.17,1.36-.29,2.08-.36.86-.08,1.54-.16,2.06-.24.51-.08.88-.2,1.12-.35.23-.15.35-.38.35-.69v-.08c0-.38-.09-.71-.27-.98-.18-.27-.44-.49-.79-.64-.35-.15-.76-.23-1.25-.23s-.93.08-1.3.23c-.37.15-.67.36-.9.63-.22.26-.37.57-.44.91l-3.66-.26c.14-.92.49-1.71,1.04-2.37.55-.66,1.27-1.17,2.18-1.52.9-.35,1.95-.53,3.16-.53.88,0,1.7.1,2.45.3.75.2,1.4.51,1.96.92.55.41.98.92,1.29,1.53.31.61.46,1.32.46,2.15v9.69h-3.81v-2.01h-.08c-.25.46-.56.86-.94,1.2-.38.34-.84.6-1.37.79-.53.18-1.16.28-1.89.28ZM326.81,166.38c.63,0,1.17-.12,1.64-.36.46-.24.82-.56,1.08-.97.26-.41.39-.87.39-1.38v-1.5c-.12.07-.28.14-.49.2-.21.06-.45.12-.72.18s-.54.11-.83.15c-.29.04-.57.09-.84.13-.46.06-.87.17-1.24.32-.37.15-.66.35-.87.61-.21.26-.32.57-.32.95,0,.35.09.65.28.9.19.25.44.43.78.56.33.13.72.19,1.15.19Z"/>
    <path class="cls-2" d="M344.59,154.51v3.06h-9.02v-3.06h9.02ZM337.82,150.83h3.93v13.71c0,.48.1.81.31,1.01.2.2.56.3,1.06.3.19,0,.44,0,.72-.03s.51-.03.67-.04l.25,3.02c-.33.06-.71.1-1.13.13-.43.02-.85.03-1.27.03-1.52,0-2.66-.33-3.41-.98s-1.13-1.63-1.13-2.94v-14.21Z"/>
    <path class="cls-2" d="M348.79,152.69c-.63,0-1.15-.2-1.58-.6s-.64-.89-.64-1.47.21-1.07.64-1.46c.42-.39.95-.59,1.57-.59s1.15.2,1.58.59c.42.39.64.88.64,1.46s-.21,1.07-.64,1.47-.95.6-1.56.6ZM346.83,168.87v-14.36h3.94v14.36h-3.94Z"/>
    <path class="cls-2" d="M360.36,169.17c-1.44,0-2.7-.31-3.78-.93-1.08-.62-1.91-1.49-2.51-2.61-.59-1.12-.89-2.42-.89-3.9s.3-2.8.89-3.92c.59-1.12,1.43-1.99,2.51-2.62,1.08-.62,2.34-.93,3.78-.93s2.72.31,3.79.93c1.07.62,1.9,1.49,2.49,2.62.59,1.12.89,2.43.89,3.92s-.3,2.78-.89,3.9c-.59,1.12-1.42,1.99-2.49,2.61-1.07.62-2.33.93-3.79.93ZM360.36,166.02c.67,0,1.24-.18,1.72-.54.47-.36.84-.86,1.09-1.5.26-.65.38-1.4.38-2.26s-.13-1.62-.38-2.26c-.26-.65-.62-1.15-1.09-1.5-.47-.36-1.05-.54-1.72-.54s-1.23.18-1.71.54c-.48.36-.84.86-1.09,1.5s-.38,1.4-.38,2.27.13,1.62.38,2.26c.25.64.62,1.15,1.09,1.5.48.36,1.05.54,1.71.54Z"/>
    <path class="cls-2" d="M373.92,160.74v8.13h-3.94v-14.36h3.81l.03,3.67h-.48c.42-1.24,1.03-2.2,1.84-2.88.81-.68,1.85-1.03,3.11-1.03,1.01,0,1.89.22,2.64.65.75.44,1.33,1.07,1.74,1.89.41.82.62,1.82.62,3v9.05h-3.94v-8.34c0-.93-.23-1.64-.69-2.15-.46-.5-1.11-.76-1.94-.76-.55,0-1.03.12-1.45.35-.42.23-.75.58-.99,1.04-.24.46-.36,1.04-.36,1.73Z"/>
    <path class="cls-2" d="M392.18,169.19c-1.2,0-2.27-.18-3.21-.54-.94-.36-1.69-.88-2.26-1.55-.57-.68-.92-1.5-1.04-2.46l3.78-.28c.12.64.42,1.13.88,1.47.46.34,1.08.52,1.87.52.74,0,1.33-.14,1.75-.42.42-.28.64-.64.64-1.08,0-.38-.16-.69-.47-.92-.31-.23-.78-.41-1.39-.54l-2.51-.49c-1.39-.28-2.44-.77-3.14-1.46-.71-.69-1.06-1.58-1.06-2.67,0-.92.25-1.71.75-2.38s1.2-1.19,2.11-1.56c.91-.37,1.97-.55,3.2-.55s2.23.18,3.12.54c.88.36,1.59.86,2.1,1.52.52.65.82,1.43.92,2.33l-3.58.28c-.07-.54-.32-.98-.76-1.33s-1-.52-1.71-.52c-.66,0-1.2.14-1.61.42-.41.28-.62.63-.62,1.07,0,.37.15.68.45.92.3.24.75.43,1.36.55l2.65.52c1.42.29,2.48.75,3.16,1.39s1.03,1.47,1.03,2.52c0,.95-.27,1.78-.82,2.49-.55.71-1.3,1.26-2.26,1.65s-2.07.59-3.32.59Z"/>
    <path class="cls-2" d="M415.23,154.51v3.06h-9.47v-3.06h9.47ZM408.34,168.87v-15.87c0-.95.19-1.75.56-2.38.37-.63.91-1.11,1.61-1.42s1.53-.48,2.49-.48c.54,0,1.04.02,1.51.07.46.05.8.08,1,.12l-.32,3.03c-.13-.03-.33-.05-.59-.07-.26-.02-.51-.03-.74-.03-.58,0-.99.13-1.23.38s-.36.65-.36,1.19v15.44h-3.93Z"/>
    <path class="cls-2" d="M422.44,169.12c-1.01,0-1.89-.22-2.64-.66s-1.33-1.07-1.74-1.9-.62-1.83-.62-2.99v-9.06h3.94v8.36c0,.93.23,1.64.69,2.15.46.5,1.11.75,1.94.75.55,0,1.03-.12,1.45-.35.42-.23.75-.58.99-1.05s.36-1.04.36-1.73v-8.13h3.94v14.36h-3.81l-.03-3.67h.48c-.42,1.24-1.04,2.2-1.85,2.89-.81.69-1.84,1.03-3.1,1.03ZM421.14,152.62c-.58,0-1.07-.19-1.47-.58-.4-.39-.6-.87-.6-1.43s.2-1.04.6-1.42c.4-.38.89-.58,1.47-.58s1.09.19,1.49.58c.4.38.6.86.6,1.42s-.2,1.04-.6,1.43c-.4.39-.89.58-1.49.58ZM427.04,152.62c-.59,0-1.09-.19-1.49-.58-.4-.39-.6-.87-.6-1.43s.2-1.04.6-1.42c.4-.38.89-.58,1.49-.58s1.07.19,1.47.58c.4.38.6.86.6,1.42s-.2,1.04-.6,1.43c-.4.39-.89.58-1.47.58Z"/>
    <path class="cls-2" d="M433.79,168.87v-14.36h3.81v2.48h.09c.26-.87.68-1.53,1.27-1.96.59-.43,1.33-.65,2.2-.65.22,0,.44,0,.65.02.21.01.4.03.57.06v3.42c-.16-.04-.4-.07-.73-.09-.33-.03-.65-.04-.97-.04-.57,0-1.07.13-1.52.38s-.8.61-1.05,1.09-.38,1.04-.38,1.7v7.96h-3.94Z"/>
    <path class="cls-2" d="M455.85,169.15c-1.18,0-2.22-.3-3.13-.9-.91-.6-1.63-1.46-2.14-2.57-.52-1.11-.78-2.44-.78-3.99s.26-2.87.79-3.98c.53-1.11,1.24-1.96,2.15-2.55.91-.59,1.94-.89,3.09-.89.71,0,1.33.11,1.86.32.54.22.99.51,1.37.88.38.37.69.77.93,1.22h.07v-7.56h3.94v19.73h-3.89v-2.25h-.09c-.23.48-.54.92-.92,1.3s-.85.68-1.39.9-1.16.33-1.87.33ZM456.97,165.96c.66,0,1.24-.18,1.72-.53.49-.35.86-.85,1.13-1.49.26-.64.4-1.39.4-2.25s-.13-1.61-.4-2.24c-.27-.63-.64-1.12-1.12-1.48-.48-.35-1.06-.53-1.73-.53s-1.22.17-1.69.52c-.47.35-.84.84-1.09,1.47s-.38,1.38-.38,2.26.13,1.63.38,2.27c.25.64.61,1.13,1.09,1.48.47.35,1.04.52,1.69.52Z"/>
    <path class="cls-2" d="M473.59,169.17c-1.46,0-2.72-.31-3.79-.93-1.07-.62-1.9-1.49-2.48-2.61-.58-1.12-.88-2.42-.88-3.9s.29-2.76.88-3.88c.59-1.12,1.41-2,2.45-2.64s2.27-.95,3.65-.95c1,0,1.92.17,2.77.5.84.33,1.58.82,2.2,1.45.62.64,1.1,1.41,1.45,2.32s.52,1.94.52,3.1v1.07h-12.42v-2.49h10.5l-1.8.62c0-.73-.12-1.37-.37-1.91s-.61-.95-1.07-1.25-1.04-.44-1.71-.44-1.23.15-1.7.44c-.47.3-.84.71-1.09,1.23-.26.53-.38,1.14-.38,1.83v1.73c0,.78.14,1.45.41,2.01s.67.99,1.17,1.29,1.11.44,1.8.44c.5,0,.94-.07,1.33-.21s.72-.34.99-.61c.27-.26.47-.58.59-.94l3.58.29c-.2.88-.61,1.65-1.21,2.31-.61.67-1.37,1.19-2.28,1.56-.92.37-1.94.56-3.09.56Z"/>
    <path class="cls-2" d="M486.67,160.74v8.13h-3.94v-14.36h3.81l.03,3.67h-.48c.42-1.24,1.03-2.2,1.84-2.88.81-.68,1.85-1.03,3.11-1.03,1.01,0,1.89.22,2.64.65.75.44,1.33,1.07,1.74,1.89.41.82.62,1.82.62,3v9.05h-3.94v-8.34c0-.93-.23-1.64-.69-2.15-.46-.5-1.11-.76-1.94-.76-.55,0-1.03.12-1.45.35-.42.23-.75.58-.99,1.04-.24.46-.36,1.04-.36,1.73Z"/>
    <path class="cls-2" d="M504.41,152.57v-3.43h16.1v3.43h-6.01v16.3h-4.07v-16.3h-6.02Z"/>
    <path class="cls-2" d="M524.78,152.69c-.63,0-1.15-.2-1.58-.6s-.64-.89-.64-1.47.21-1.07.64-1.46c.42-.39.95-.59,1.57-.59s1.15.2,1.58.59c.42.39.64.88.64,1.46s-.21,1.07-.64,1.47-.95.6-1.56.6ZM522.81,168.87v-14.36h3.94v14.36h-3.94Z"/>
    <path class="cls-2" d="M536.31,169.17c-1.46,0-2.72-.31-3.79-.93-1.07-.62-1.9-1.49-2.48-2.61-.58-1.12-.88-2.42-.88-3.9s.29-2.76.88-3.88c.59-1.12,1.41-2,2.45-2.64s2.27-.95,3.65-.95c1,0,1.92.17,2.77.5.84.33,1.58.82,2.2,1.45.62.64,1.1,1.41,1.45,2.32s.52,1.94.52,3.1v1.07h-12.42v-2.49h10.5l-1.8.62c0-.73-.12-1.37-.37-1.91s-.61-.95-1.07-1.25-1.04-.44-1.71-.44-1.23.15-1.7.44c-.47.3-.84.71-1.09,1.23-.26.53-.38,1.14-.38,1.83v1.73c0,.78.14,1.45.41,2.01s.67.99,1.17,1.29,1.11.44,1.8.44c.5,0,.94-.07,1.33-.21s.72-.34.99-.61c.27-.26.47-.58.59-.94l3.58.29c-.2.88-.61,1.65-1.21,2.31-.61.67-1.37,1.19-2.28,1.56-.92.37-1.94.56-3.09.56Z"/>
    <path class="cls-2" d="M545.46,168.87v-14.36h3.81v2.48h.09c.26-.87.68-1.53,1.27-1.96.59-.43,1.33-.65,2.2-.65.22,0,.44,0,.65.02.21.01.4.03.57.06v3.42c-.16-.04-.4-.07-.73-.09-.33-.03-.65-.04-.97-.04-.57,0-1.07.13-1.52.38s-.8.61-1.05,1.09-.38,1.04-.38,1.7v7.96h-3.94Z"/>
    <path class="cls-2" d="M561.85,169.19c-1.2,0-2.27-.18-3.21-.54-.94-.36-1.69-.88-2.26-1.55-.57-.68-.92-1.5-1.04-2.46l3.78-.28c.12.64.42,1.13.88,1.47.46.34,1.08.52,1.87.52.74,0,1.33-.14,1.75-.42.42-.28.64-.64.64-1.08,0-.38-.16-.69-.47-.92-.31-.23-.78-.41-1.39-.54l-2.51-.49c-1.39-.28-2.44-.77-3.14-1.46-.71-.69-1.06-1.58-1.06-2.67,0-.92.25-1.71.75-2.38s1.2-1.19,2.11-1.56c.91-.37,1.97-.55,3.2-.55s2.23.18,3.12.54c.88.36,1.59.86,2.1,1.52.52.65.82,1.43.92,2.33l-3.58.28c-.07-.54-.32-.98-.76-1.33s-1-.52-1.71-.52c-.66,0-1.2.14-1.61.42-.41.28-.62.63-.62,1.07,0,.37.15.68.45.92.3.24.75.43,1.36.55l2.65.52c1.42.29,2.48.75,3.16,1.39s1.03,1.47,1.03,2.52c0,.95-.27,1.78-.82,2.49-.55.71-1.3,1.26-2.26,1.65s-2.07.59-3.32.59Z"/>
    <path class="cls-2" d="M577.13,169.17c-1.44,0-2.7-.31-3.77-.94s-1.9-1.5-2.49-2.62c-.59-1.12-.88-2.41-.88-3.89s.29-2.79.88-3.91c.59-1.12,1.42-1.99,2.49-2.62,1.07-.63,2.32-.94,3.77-.94.9,0,1.73.13,2.49.38.76.25,1.43.61,2,1.07.58.46,1.04,1.02,1.4,1.66.36.64.58,1.36.68,2.16l-3.74.3c-.07-.37-.18-.7-.33-1-.15-.3-.35-.55-.58-.77-.24-.22-.52-.38-.83-.5-.32-.12-.67-.17-1.05-.17-.67,0-1.25.18-1.72.54s-.84.86-1.09,1.51c-.25.65-.37,1.41-.37,2.27s.12,1.62.37,2.26c.25.64.61,1.15,1.09,1.51s1.05.54,1.72.54c.39,0,.74-.06,1.05-.17.31-.12.59-.28.82-.5s.43-.48.58-.79c.15-.31.27-.65.34-1.03l3.75.29c-.09.8-.31,1.53-.66,2.18-.35.65-.82,1.21-1.4,1.68-.58.47-1.25.84-2.02,1.09-.77.26-1.6.38-2.51.38Z"/>
    <path class="cls-2" d="M590.05,160.74v8.13h-3.94v-19.73h3.9v9.04h-.54c.42-1.24,1.03-2.2,1.84-2.88.81-.68,1.85-1.03,3.11-1.03,1.01,0,1.89.22,2.64.65.75.44,1.33,1.07,1.74,1.89.41.82.62,1.82.62,3v9.05h-3.94v-8.34c0-.93-.23-1.64-.69-2.15-.46-.5-1.11-.76-1.94-.76-.55,0-1.03.12-1.45.35-.42.23-.75.58-.99,1.04-.24.46-.36,1.04-.36,1.73Z"/>
    <path class="cls-2" d="M607.47,169.12c-1.01,0-1.89-.22-2.64-.66s-1.33-1.07-1.74-1.9-.62-1.83-.62-2.99v-9.06h3.94v8.36c0,.93.23,1.64.69,2.15.46.5,1.11.75,1.94.75.55,0,1.03-.12,1.45-.35.42-.23.75-.58.99-1.05s.36-1.04.36-1.73v-8.13h3.94v14.36h-3.81l-.03-3.67h.48c-.42,1.24-1.04,2.2-1.85,2.89-.81.69-1.84,1.03-3.1,1.03Z"/>
    <path class="cls-2" d="M626.57,154.51v3.06h-9.02v-3.06h9.02ZM619.8,150.83h3.93v13.71c0,.48.1.81.31,1.01.2.2.56.3,1.06.3.19,0,.44,0,.72-.03s.51-.03.67-.04l.25,3.02c-.33.06-.71.1-1.13.13-.43.02-.85.03-1.27.03-1.52,0-2.66-.33-3.41-.98s-1.13-1.63-1.13-2.94v-14.21Z"/>
    <path class="cls-2" d="M628.71,168.87v-2.53l7.11-8.61v-.07h-7.02v-3.15h11.71v2.71l-6.85,8.44v.07h7v3.14h-11.97Z"/>
  </g>
  <g>
    <path class="cls-3" d="M661,145.94v-12.97h10.79s0-78.97,0-78.97h-10.79v-12.97h27.29v104.91h-27.29Z"/>
    <path class="cls-3" d="M0,145.94V41.03h27.29v12.97h-10.79v78.97h10.79v12.97H0Z"/>
  </g>
</svg>
